Coordinates
version=1
nRows=19
nColumns=36
inDegrees=yes

Units are S.I. units (second, meters, Newtons, ...)
If the header above contains a line with 'inDegrees', this indicates whether rotational values are in degrees (yes) or radians (no).

endheader
time	pelvis_tilt	pelvis_list	pelvis_rotation	pelvis_tx	pelvis_ty	pelvis_tz	hip_flexion_r	hip_adduction_r	hip_rotation_r	knee_angle_r	knee_angle_r_beta	ankle_angle_r	subtalar_angle_r	mtp_angle_r	hip_flexion_l	hip_adduction_l	hip_rotation_l	knee_angle_l	knee_angle_l_beta	ankle_angle_l	subtalar_angle_l	mtp_angle_l	lumbar_extension	lumbar_bending	lumbar_rotation	arm_flex_r	arm_add_r	arm_rot_r	elbow_flex_r	pro_sup_r	arm_flex_l	arm_add_l	arm_rot_l	elbow_flex_l	pro_sup_l
      0.85000000	    -10.98962121	      3.72130928	      0.44028261	     -0.38044177	      1.24621333	     -0.08848326	     21.01481499	     -7.15593232	      2.37618329	     23.16410335	      0.40428987	     13.09981383	    -23.36707169	     -7.49972063	     26.76156369	      2.27932950	      5.77150820	     32.52051604	      0.56759008	     18.93412579	    -10.45749968	     -7.49972063	    -13.49396346	      0.15754557	     -4.64335509	     17.37397551	     -7.87224901	     11.53091737	     45.15322626	     84.34863887	     21.42304189	     -3.11657773	     10.20518990	     40.83381429	     88.85404294
      0.86666670	    -12.17767206	      3.70228455	      0.45035606	     -0.38550285	      1.23870617	     -0.09150307	     24.36769033	     -7.47786416	      1.64411946	     25.64622878	      0.44761113	     13.89442224	    -22.81009739	     -7.49974144	     29.87680065	      2.31571836	      5.27418171	     34.78966814	      0.60719425	     19.60951411	    -10.08752682	     -7.49974144	    -14.19683229	      0.50354422	     -4.75996351	     18.52725729	     -7.85575721	     10.87616932	     42.25134185	     83.61028060	     22.69591630	     -2.90383656	     10.34934450	     38.14930367	     87.97184612
      0.88333330	    -13.63504102	      3.76143083	      0.36121508	     -0.38453039	      1.23441488	     -0.08502200	     27.93973680	     -7.72528180	      1.03332173	     28.17011131	      0.49166119	     14.86074500	    -22.02505668	     -7.49974900	     33.15554722	      2.12101355	      4.49176536	     37.08671925	      0.64728536	     20.43746217	     -9.19993288	     -7.49974900	    -14.79738492	      0.58159189	     -4.54758826	     18.56843853	     -7.68337190	     10.25129765	     40.02206394	     84.17942414	     22.94402064	     -3.31120431	     10.46770332	     36.36478285	     88.59589218
      0.90000000	    -14.32348216	      3.68299180	      0.02487232	     -0.37495191	      1.23307405	     -0.08094578	     30.15992135	     -7.78071646	      0.40990856	     30.25760233	      0.52809478	     16.17666376	    -20.37999642	     -7.49981842	     34.87213211	      1.59009362	      3.96672335	     38.82676662	      0.67765492	     21.37471211	     -8.14451567	     -7.49981842	    -15.87438379	      0.78214747	     -4.19690090	     17.88008629	     -7.04129116	      7.59908376	     36.95873034	     90.99297163	     22.55317131	     -3.66424046	      9.90803275	     33.77624490	     93.08723274
      0.91666670	    -14.85412374	      3.72507172	     -0.53661870	     -0.36784741	      1.22763006	     -0.07742771	     32.06366854	     -7.88337420	     -0.15138676	     32.53815708	      0.56789797	     17.58626470	    -18.25147441	     -7.49982647	     35.81861508	      0.92678208	      3.11884547	     39.96544967	      0.69752868	     22.43817949	     -6.83325525	     -7.49982647	    -16.83769232	      0.81059039	     -3.99399793	     16.70007370	     -6.68404944	      6.76251645	     34.01771978	     90.93369346	     21.39987986	     -4.53239295	      9.89497181	     31.97947325	     92.97641031
      0.93333330	    -15.77893651	      3.89136318	     -0.95886625	     -0.37962103	      1.22216683	     -0.07710748	     34.47494789	     -8.02800429	     -0.51773786	     34.73332414	      0.60621087	     19.03968616	    -16.70780056	     -7.49983054	     37.37904444	      0.40788530	      2.26569044	     41.12385461	      0.71774666	     23.23651175	     -5.83832608	     -7.49983054	    -17.70530971	      0.62835263	     -3.76028986	     15.78784899	     -6.59656429	      6.19749017	     31.77157740	     91.04559914	     20.19810840	     -5.72252695	      9.99510206	     29.82724221	     93.01834167
      0.95000000	    -16.33213520	      3.96540557	     -1.19267060	     -0.37364452	      1.21502409	     -0.08005240	     35.93926671	     -8.37704651	     -1.19913094	     36.49820373	      0.63701383	     20.31054401	    -15.00785712	     -7.49983098	     38.30376042	      0.00035601	      1.69393817	     42.10330886	      0.73484137	     24.13223391	     -4.51520294	     -7.49983098	    -18.75495020	      0.69930244	     -3.75424286	     14.70652117	     -6.64862725	      5.58578041	     29.57443982	     90.54448127	     18.67175793	     -6.48831275	     10.34926853	     27.73007091	     92.25521152
      0.96666670	    -17.37939885	      4.14939844	     -1.25803749	     -0.38548651	      1.21264459	     -0.07995785	     38.34655140	     -8.83125583	     -1.79813942	     38.60725764	      0.67382376	     21.43474405	    -13.73796795	     -7.49983489	     40.15661609	     -0.21476308	      1.01533754	     43.27345586	      0.75526428	     24.74799871	     -3.56437685	     -7.49983489	    -19.85015848	      0.68342621	     -3.62547471	     13.40318968	     -7.04779126	      5.54002657	     27.66410242	     90.75627789	     17.50252710	     -7.58011982	     10.90793763	     26.18043521	     92.29581476
      0.98333330	    -17.58441872	      4.04880665	     -1.25128055	     -0.37896380	      1.21087259	     -0.07702964	     39.16937401	     -9.01011441	     -2.43377030	     39.99066914	      0.69796885	     22.59817330	    -12.48817201	     -7.49984318	     40.98173695	     -0.61391119	      0.83158973	     44.53727768	      0.77732214	     25.34297310	     -2.76121555	     -7.49984318	    -21.28800974	      0.83825290	     -3.77939998	     11.86402986	     -7.10413897	      6.07756414	     23.46451355	     91.09810068	     15.94706565	     -8.53328895	     12.23445993	     23.83776422	     92.09223916
      1.00000000	    -18.14355740	      3.90129362	     -1.22242016	     -0.38458086	      1.20923399	     -0.08000215	     40.48320189	     -9.17048465	     -3.00106143	     41.33093167	      0.72136084	     23.01833183	    -12.06251695	     -7.49984610	     42.31981961	     -1.15396152	      0.19847277	     46.09160399	      0.80445025	     25.83283070	     -1.58422199	     -7.49984610	    -22.74119488	      1.05490679	     -3.65350163	     10.24567360	     -7.54628013	      6.48406471	     21.05971000	     91.16696585	     14.85354917	     -9.39722766	     12.50967326	     22.63841207	     91.86084277
      1.01666670	    -18.99840986	      3.79137893	     -0.97759882	     -0.39848930	      1.21037926	     -0.08676514	     42.09631790	     -9.50909288	     -3.52581819	     42.07939094	      0.73442392	     22.91528732	    -11.67839484	     -7.49991815	     44.23087613	     -1.26326451	     -0.08597304	     47.39154405	      0.82713848	     25.56024735	     -1.50096062	     -7.49991815	    -23.97110568	      1.25813922	     -4.08805731	     10.47704642	     -8.46152530	     13.93043941	     17.00112166	     86.46571804	     14.70011798	    -10.42112562	     17.82982523	     18.88654419	     83.35661321
      1.03333330	    -19.89818377	      3.84700572	     -1.10434760	     -0.39599155	      1.20822534	     -0.08577427	     43.66471014	     -9.78293426	     -3.80986482	     42.63033614	      0.74403973	     22.61124297	    -11.52693980	     -7.49992026	     45.67463083	     -1.35826452	     -0.38352904	     48.00799553	      0.83789759	     25.35870352	     -1.14221977	     -7.49992026	    -25.32632300	      1.13391839	     -4.19701740	      9.27956433	     -8.89718016	     14.56437858	     15.50697533	     86.59159289	     13.53130089	    -11.09319684	     17.81129401	     17.03830698	     83.23819279
      1.05000000	    -20.60688961	      3.86636640	     -1.05110811	     -0.39542127	      1.19987908	     -0.08567395	     44.69275274	    -10.01969392	     -4.10860006	     42.90706079	      0.74886948	     22.65009928	    -11.02430010	     -7.49991623	     46.91120711	     -1.49451444	     -0.70030885	     48.51803303	      0.84679942	     25.44108567	     -0.74183899	     -7.49991623	    -26.59790903	      0.97575929	     -4.12841179	      7.54407474	     -9.49812490	     15.39216008	     14.31359610	     86.06682617	     11.79688860	    -11.09855364	     17.25028557	     14.80534030	     82.37410896
      1.06666670	    -21.52773511	      3.90520016	     -1.31001514	     -0.39353072	      1.19244299	     -0.08526970	     46.18206567	    -10.17109219	     -4.37033998	     43.57812253	      0.76058172	     23.18388926	     -9.93572560	     -7.49992461	     48.78533194	     -1.82710501	     -1.23879431	     49.74942300	      0.86829123	     25.44944073	     -0.87148402	     -7.49992461	    -27.86455124	      1.30544478	     -3.70607105	      5.32140116	    -10.21820646	     24.30646022	     11.88979252	     86.76509306	      9.42568830	    -11.09974737	     20.33756796	     12.23699596	     80.89393810
      1.08333330	    -22.58612967	      3.92857270	     -1.81673487	     -0.39953978	      1.18588887	     -0.08799621	     48.11471841	    -10.16751986	     -4.40292302	     44.60875594	      0.77856967	     23.78493249	     -9.12697274	     -7.49992567	     51.25756175	     -2.33271624	     -1.72376177	     51.70090850	      0.90235108	     25.73988786	     -1.01981205	     -7.49992567	    -29.04959683	      1.54906070	     -3.09749431	      2.94023048	    -10.48225518	     24.71469677	     10.89641604	     86.61982200	      7.20446927	    -10.88059171	     20.59906768	     11.36306174	     80.70991347
      1.10000000	    -23.25266546	      3.92132056	     -2.07662028	     -0.39816674	      1.18185216	     -0.08777027	     49.69554096	    -10.31939566	     -4.67204180	     45.91074786	      0.80129371	     24.28224120	     -8.57026554	     -7.49992666	     53.26972220	     -2.62572666	     -1.88056656	     53.45109348	      0.93289757	     26.19031221	     -0.71595756	     -7.49992666	    -30.88574198	      2.19904580	     -2.60388569	      0.49185631	     -9.83194314	     25.17122221	     10.17253055	     86.39700770	      5.46637784	    -10.49222986	     20.80831264	     10.87834493	     80.44791881
      1.11666670	    -24.18718506	      4.04654517	     -2.47129400	     -0.39799771	      1.17601172	     -0.08783075	     51.38906597	    -10.42995912	     -4.59251622	     47.17358275	      0.82333434	     24.99857792	     -8.21062816	     -7.49993360	     55.13395817	     -2.95886634	     -2.14369415	     54.72257218	      0.95508906	     26.73657523	     -0.39091641	     -7.49993360	    -32.12929446	      2.44553512	     -2.26471438	     -1.28485001	     -9.62696727	     25.38049514	     10.27212178	     84.47835762	      3.56803450	    -10.09044876	     20.83428754	     11.03618891	     78.85765255
      1.13333330	    -24.95047078	      4.23561657	     -2.73983447	     -0.39647373	      1.17435684	     -0.08715269	     52.67989595	    -10.55103300	     -4.62228378	     48.07814293	      0.83912189	     25.39711467	     -7.77946521	     -7.49994168	     56.34431646	     -3.15192312	     -2.43057641	     55.49964377	      0.96865152	     26.97081510	      0.16846217	     -7.49994168	    -32.69419688	      2.34633691	     -1.81308619	     -2.36686957	     -9.32725036	     25.35917547	     10.19522745	     82.00495846	      1.77300611	    -10.00591821	     20.63642798	     10.73470245	     76.69746745
      1.15000000	    -25.69269734	      4.32157123	     -2.90411569	     -0.39682931	      1.17361373	     -0.08717400	     53.79938235	    -10.60691473	     -4.67360273	     48.70600266	      0.85008011	     25.38015725	     -7.77693698	     -7.49994457	     57.21935688	     -3.30944600	     -2.76662988	     55.83906259	      0.97457549	     27.20260213	      0.65022983	     -7.49994457	    -33.65682342	      2.05383462	     -1.85280883	     -2.40135214	     -9.17026789	     25.21277521	     10.84187727	     80.94171982	     -0.07727779	     -9.15782700	     20.79029354	     10.17590856	     75.84113823
